# xmcd CD database file
#
# Track frame offsets:
#	150
#	21825
#	39375
#
# Disc length: 810 seconds
#
# Revision: 0
# Processed by: cddbd v1.5PL3 Copyright (c) Steve Scherf et al.
# Submitted via: CDex 1.51
#
DISCID=1a032803
DTITLE=工藤静香 - 一瞬
DYEAR=1998
DGENRE=JPop
TTITLE0=一瞬
TTITLE1=piece of a star
TTITLE2=一瞬  オリジナルカラオケ
EXTD=YEAR: 1998
EXTT0=
EXTT1=
EXTT2=
PLAYORDER=
